<svg xmlns="http://www.w3.org/2000/svg" viewBox="0 0 32 32" fill="none">
  <!-- Background circle with gradient -->
  <defs>
    <linearGradient id="bg" x1="0%" y1="0%" x2="100%" y2="100%">
      <stop offset="0%" style="stop-color:#6366f1"/>
      <stop offset="100%" style="stop-color:#8b5cf6"/>
    </linearGradient>
  </defs>
  <circle cx="16" cy="16" r="15" fill="url(#bg)"/>
  <!-- Game controller icon -->
  <path d="M10 14h2v2h-2v-2zm10 0h2v2h-2v-2z" fill="white"/>
  <path d="M8 12a4 4 0 0 1 4-4h8a4 4 0 0 1 4 4v4a4 4 0 0 1-4 4h-1l-1 3h-4l-1-3h-1a4 4 0 0 1-4-4v-4zm4-2a2 2 0 0 0-2 2v4a2 2 0 0 0 2 2h2l1 3h2l1-3h2a2 2 0 0 0 2-2v-4a2 2 0 0 0-2-2h-8z" fill="white" fill-rule="evenodd"/>
</svg>
